<svg width="734" height="640" viewBox="0 0 734 640" fill="none" xmlns="http://www.w3.org/2000/svg" xmlns:xlink="http://www.w3.org/1999/xlink">
<rect width="734" height="640" fill="url(#pattern0)"/>
<defs>
<pattern id="pattern0" patternContentUnits="objectBoundingBox" width="1" height="1">
<use xlink:href="#image0" transform="translate(-0.00408719) scale(0.0013624 0.0015625)"/>
</pattern>
<image id="image0" width="740" height="640" xlink:href="img/Group 3.png"/>
</defs>
<path d="M222 533L442.8 541L512 527.3V549L443.5 568.7L222 557.7V533Z" fill="#3595F6" fill-opacity="0.75"/>
<path d="M223 534V509L443.3 512.3L513 509V529L443.7 542L223 534Z" fill="#3595F6" fill-opacity="0.75"/>
<path d="M223 508V483H444H513V506L445 513L223 508Z" fill="#3595F6" fill-opacity="0.75"/>
<path d="M223 482V457L444.3 453.3L512 460V482H444" fill="#3595F6" fill-opacity="0.75"/>
<path d="M223 456V430L444.5 426.7L513 437.7V459L444 452.3L223 456Z" fill="#3595F6" fill-opacity="0.75"/>
<path d="M222 430V406.3L443 394L514 417V438.3L443 426L222 430Z" fill="#3595F6" fill-opacity="0.75"/>
<path d="M222 406V381L444.2 364.7L514 393.3V414L443.7 392.3L222 406Z" fill="#3595F6" fill-opacity="0.75"/>
<path d="M222 379V354L444.5 333.7L514 370.3V391L442 362.3L222 379Z" fill="#3595F6" fill-opacity="0.75"/>
<path d="M222 354V330L445 305.3L514 349.3V371L444.7 333L222 354Z" fill="#3595F6" fill-opacity="0.75"/>
<path d="M222 330V306L444.5 277.3L514 328.3V349L443.7 306.7L222 330Z" fill="#3595F6" fill-opacity="0.75"/>
<path d="M221 306V282L443.3 249L514 308.3V328L444 277.3L221 306Z" fill="#3595F6" fill-opacity="0.75"/>
<path d="M222 282V258L443.2 223L513 287V308L444.3 249.7L222 282Z" fill="#3595F6" fill-opacity="0.75"/>
<path d="M222 257V232L444.3 194L513 264.3V285L444 221L222 257Z" fill="#3595F6" fill-opacity="0.75"/>
<path d="M222 231V206L442.8 162.3L513 241.3V264L444 190.7L222 231Z" fill="#3595F6" fill-opacity="0.75"/>
<path d="M223 206V181L443 133L513 218V241L442.3 161.7L223 206Z" fill="#3595F6" fill-opacity="0.75"/>
<path d="M222 182V157L441.8 105L513 197.3V220L443.3 133.7L222 182Z" fill="#3595F6" fill-opacity="0.75"/>
<path d="M222 157V131L444 74.3L513 176V197L443.7 105.3L222 157Z" fill="#3595F6" fill-opacity="0.75"/>

</svg>
